# xmcd
#
# Track frame offsets:
# 150
# 1750
# 19351
# 49515
# 81225
# 110008
# 113910
# 135428
# 165003
# 190302
# 209115
#
# Disc length: 3213 seconds
#
#
# Revision: 0
# Processed by: cddbd v1.5.1PL2 Copyright (c) Steve Scherf et al.
# Submitted via: FreeRIP 2.945 
#
DISCID=8a0c8b0b
DTITLE=Pseudônimos - As Grades O Verdadeiro Inverno
DYEAR=2005
DGENRE=Rap
TTITLE0=Intro
TTITLE1=Realidade Escondida
TTITLE2=De quem Será  a Culpa
TTITLE3=as Grades O Verdadeiro Inverno
TTITLE4=Sentinela Da Paz
TTITLE5=Intro
TTITLE6=Ideias De Pensamento
TTITLE7=Seja Como For
TTITLE8=Zé Polvinho
TTITLE9=Sobreviver Na Favela è  a Missão
TTITLE10=Clima de tensão
EXTD=
EXTT0=
EXTT1=
EXTT2=
EXTT3=
EXTT4=
EXTT5=
EXTT6=
EXTT7=
EXTT8=
EXTT9=
EXTT10=
PLAYORDER=
